# 3ds Max Wavefront OBJ Exporter v0.97b - (c)2007 guruware
# File Created: 11.11.2015 00:55:50

mtllib ARCOIRIS.mtl

#
# object nyancatOBJ_pCube1
#

v  -0.4997 42.6058 2.7518
v  -0.4997 15.3541 2.7518
v  0.4997 15.3541 2.7518
v  0.4997 42.6058 2.7518
v  0.4997 15.3541 -53.1142
v  0.4997 42.6058 -53.1142
v  -0.4997 15.3541 -53.1142
v  -0.4997 42.6058 -53.1142
# 8 vertices

vn 0.0000 -0.0000 1.0000
vn 1.0000 0.0000 -0.0000
vn 0.0000 0.0000 -1.0000
vn -1.0000 0.0000 -0.0000
vn 0.0000 -1.0000 -0.0000
vn 0.0000 1.0000 0.0000
# 6 vertex normals

vt 0.3750 0.0000 0.0000
vt 0.6250 0.0000 0.0000
vt 0.6250 0.2500 0.0000
vt 0.3750 0.2500 0.0000
vt 0.6250 0.5099 0.0000
vt 0.3750 0.5099 0.0000
vt 0.6250 0.7599 0.0000
vt 0.3750 0.7599 0.0000
vt 0.6250 1.0000 0.0000
vt 0.3750 1.0000 0.0000
vt 0.8750 0.0000 0.0000
vt 0.8750 0.2500 0.0000
vt 0.1250 0.0000 0.0000
vt 0.1250 0.2500 0.0000
# 14 texture coords

g nyancatOBJ_pCube1
usemtl nyancatOBJ_lambert2
s off
f 1/1/1 2/2/1 3/3/1 4/4/1 
f 4/4/2 3/3/2 5/5/2 6/6/2 
f 6/6/3 5/5/3 7/7/3 8/8/3 
f 8/8/4 7/7/4 2/9/4 1/10/4 
f 2/2/5 7/11/5 5/12/5 3/3/5 
f 8/13/6 1/1/6 4/4/6 6/14/6 
# 6 polygons

