# 3ds Max Wavefront OBJ Exporter v0.97b - (c)2007 guruware
# File Created: 18.11.2015 17:48:08

mtllib dona.mtl

#
# object dona
#

v  0.1901 5.7793 -16.4686
v  0.1901 9.7198 -14.8364
v  8.8583 9.7198 -12.0199
v  9.8177 5.7793 -13.3404
v  0.1901 11.3520 -10.8959
v  6.5421 11.3520 -8.8320
v  0.1901 9.7198 -6.9554
v  4.2259 9.7198 -5.6440
v  0.1901 5.7793 -5.3232
v  3.2666 5.7793 -4.3236
v  0.1901 1.8388 -6.9554
v  4.2259 1.8388 -5.6440
v  0.1901 0.2066 -10.8959
v  6.5421 0.2066 -8.8320
v  0.1901 1.8388 -14.8364
v  8.8583 1.8388 -12.0199
v  14.2155 9.7198 -4.6463
v  15.7678 5.7793 -5.1507
v  10.4679 11.3520 -3.4287
v  6.7202 9.7198 -2.2110
v  5.1679 5.7793 -1.7066
v  6.7202 1.8388 -2.2110
v  10.4679 0.2066 -3.4287
v  14.2155 1.8388 -4.6463
v  14.2155 9.7198 4.4679
v  15.7678 5.7793 4.9723
v  10.4679 11.3520 3.2502
v  6.7202 9.7198 2.0325
v  5.1679 5.7793 1.5281
v  6.7202 1.8388 2.0325
v  10.4679 0.2066 3.2502
v  14.2155 1.8388 4.4679
v  8.8583 9.7198 11.8414
v  9.8177 5.7793 13.1619
v  6.5421 11.3520 8.6535
v  4.2259 9.7198 5.4656
v  3.2666 5.7793 4.1451
v  4.2259 1.8388 5.4656
v  6.5421 0.2066 8.6535
v  8.8583 1.8388 11.8414
v  0.1901 9.7198 14.6579
v  0.1901 5.7793 16.2901
v  0.1901 11.3520 10.7174
v  0.1901 9.7198 6.7769
v  0.1901 5.7793 5.1447
v  0.1901 1.8388 6.7769
v  0.1901 0.2066 10.7174
v  0.1901 1.8388 14.6579
v  -8.4780 9.7198 11.8414
v  -9.4374 5.7793 13.1619
v  -6.1618 11.3520 8.6535
v  -3.8457 9.7198 5.4656
v  -2.8863 5.7793 4.1451
v  -3.8457 1.8388 5.4656
v  -6.1618 0.2066 8.6535
v  -8.4780 1.8388 11.8414
v  -13.8352 9.7198 4.4679
v  -15.3875 5.7793 4.9723
v  -10.0876 11.3520 3.2502
v  -6.3399 9.7198 2.0325
v  -4.7876 5.7793 1.5281
v  -6.3399 1.8388 2.0325
v  -10.0876 0.2066 3.2502
v  -13.8352 1.8388 4.4679
v  -13.8352 9.7198 -4.6463
v  -15.3875 5.7793 -5.1507
v  -10.0876 11.3520 -3.4287
v  -6.3399 9.7198 -2.2110
v  -4.7876 5.7793 -1.7066
v  -6.3399 1.8388 -2.2110
v  -10.0876 0.2066 -3.4287
v  -13.8352 1.8388 -4.6463
v  -8.4780 9.7198 -12.0199
v  -9.4374 5.7793 -13.3404
v  -6.1618 11.3520 -8.8320
v  -3.8457 9.7198 -5.6440
v  -2.8863 5.7793 -4.3236
v  -3.8457 1.8388 -5.6440
v  -6.1618 0.2066 -8.8320
v  -8.4780 1.8388 -12.0199
# 80 vertices

vn -0.0000 0.0000 -1.0000
vn -0.0000 0.6712 -0.7413
vn 0.4357 0.6712 -0.5997
vn 0.5878 0.0000 -0.8090
vn -0.0000 0.9971 -0.0761
vn 0.0447 0.9971 -0.0616
vn 0.0000 0.7470 0.6648
vn -0.3908 0.7470 0.5378
vn 0.0000 -0.0000 1.0000
vn -0.5878 -0.0000 0.8090
vn 0.0000 -0.7470 0.6648
vn -0.3908 -0.7470 0.5378
vn -0.0000 -0.9971 -0.0761
vn 0.0447 -0.9971 -0.0616
vn -0.0000 -0.6712 -0.7413
vn 0.4357 -0.6712 -0.5997
vn 0.7050 0.6712 -0.2291
vn 0.9511 0.0000 -0.3090
vn 0.0724 0.9971 -0.0235
vn -0.6323 0.7470 0.2054
vn -0.9511 -0.0000 0.3090
vn -0.6323 -0.7470 0.2054
vn 0.0724 -0.9971 -0.0235
vn 0.7050 -0.6712 -0.2291
vn 0.7050 0.6712 0.2291
vn 0.9511 -0.0000 0.3090
vn 0.0724 0.9971 0.0235
vn -0.6323 0.7470 -0.2054
vn -0.9511 -0.0000 -0.3090
vn -0.6323 -0.7470 -0.2054
vn 0.0724 -0.9971 0.0235
vn 0.7050 -0.6712 0.2291
vn 0.4357 0.6712 0.5997
vn 0.5878 -0.0000 0.8090
vn 0.0447 0.9971 0.0616
vn -0.3908 0.7470 -0.5378
vn -0.5878 0.0000 -0.8090
vn -0.3908 -0.7470 -0.5378
vn 0.0447 -0.9971 0.0616
vn 0.4357 -0.6712 0.5997
vn -0.0000 0.6712 0.7413
vn -0.0000 -0.0000 1.0000
vn 0.0000 0.9971 0.0761
vn 0.0000 0.7470 -0.6648
vn 0.0000 0.0000 -1.0000
vn 0.0000 -0.7470 -0.6648
vn -0.0000 -0.9971 0.0761
vn -0.0000 -0.6712 0.7413
vn -0.4357 0.6712 0.5997
vn -0.0447 0.9971 0.0616
vn 0.3908 0.7470 -0.5378
vn 0.3908 -0.7470 -0.5378
vn -0.0447 -0.9971 0.0616
vn -0.4357 -0.6712 0.5997
vn -0.7050 0.6712 0.2291
vn -0.0724 0.9971 0.0235
vn 0.6323 0.7470 -0.2054
vn 0.6323 -0.7470 -0.2054
vn -0.0724 -0.9971 0.0235
vn -0.7050 -0.6712 0.2291
vn -0.7050 0.6712 -0.2291
vn -0.9511 0.0000 -0.3090
vn -0.0724 0.9971 -0.0235
vn 0.6323 0.7470 0.2054
vn 0.6323 -0.7470 0.2054
vn -0.0724 -0.9971 -0.0235
vn -0.7050 -0.6712 -0.2291
vn -0.4357 0.6712 -0.5997
vn -0.0447 0.9971 -0.0616
vn 0.3908 0.7470 0.5378
vn 0.3908 -0.7470 0.5378
vn -0.0447 -0.9971 -0.0616
vn -0.4357 -0.6712 -0.5997
# 73 vertex normals

vt 0.8906 0.4352 0.0000
vt 0.8906 0.4778 0.0000
vt 0.7971 0.4778 0.0000
vt 0.7867 0.4352 0.0000
vt 0.3943 0.8006 0.0000
vt 0.3943 0.7580 0.0000
vt 0.4628 0.7357 0.0000
vt 0.4879 0.7701 0.0000
vt 0.3943 0.7155 0.0000
vt 0.4378 0.7013 0.0000
vt 0.3952 0.8027 0.0000
vt 0.3952 0.8452 0.0000
vt 0.3620 0.8452 0.0000
vt 0.3516 0.8027 0.0000
vt 0.3952 0.8877 0.0000
vt 0.3516 0.8877 0.0000
vt 0.3963 0.1592 0.0000
vt 0.3963 0.1166 0.0000
vt 0.4649 0.1389 0.0000
vt 0.4399 0.1733 0.0000
vt 0.3963 0.0741 0.0000
vt 0.4899 0.1045 0.0000
vt 0.8906 0.3927 0.0000
vt 0.7971 0.3927 0.0000
vt 0.7864 0.4352 0.0000
vt 0.7722 0.4777 0.0000
vt 0.6926 0.4777 0.0000
vt 0.6980 0.4352 0.0000
vt 0.5052 0.6774 0.0000
vt 0.5457 0.6905 0.0000
vt 0.4648 0.6642 0.0000
vt 0.3504 0.8027 0.0000
vt 0.3361 0.8452 0.0000
vt 0.3079 0.8452 0.0000
vt 0.3133 0.8027 0.0000
vt 0.3504 0.8877 0.0000
vt 0.3133 0.8877 0.0000
vt 0.5073 0.1972 0.0000
vt 0.4668 0.2104 0.0000
vt 0.5477 0.1841 0.0000
vt 0.7722 0.3927 0.0000
vt 0.6926 0.3927 0.0000
vt 0.5942 0.4777 0.0000
vt 0.5887 0.4352 0.0000
vt 0.5052 0.6053 0.0000
vt 0.5457 0.5921 0.0000
vt 0.4648 0.6184 0.0000
vt 0.2730 0.8452 0.0000
vt 0.2675 0.8027 0.0000
vt 0.2675 0.8877 0.0000
vt 0.5073 0.2693 0.0000
vt 0.4668 0.2562 0.0000
vt 0.5477 0.2825 0.0000
vt 0.5942 0.3927 0.0000
vt 0.5146 0.4777 0.0000
vt 0.5003 0.4352 0.0000
vt 0.4628 0.5470 0.0000
vt 0.4879 0.5125 0.0000
vt 0.4378 0.5814 0.0000
vt 0.2447 0.8452 0.0000
vt 0.2305 0.8027 0.0000
vt 0.2305 0.8877 0.0000
vt 0.4649 0.3277 0.0000
vt 0.4399 0.2933 0.0000
vt 0.4899 0.3621 0.0000
vt 0.5146 0.3927 0.0000
vt 0.4977 0.4355 0.0000
vt 0.4874 0.4795 0.0000
vt 0.3938 0.4795 0.0000
vt 0.3972 0.4388 0.0000
vt 0.3943 0.5226 0.0000
vt 0.3943 0.4801 0.0000
vt 0.3943 0.5672 0.0000
vt 0.2294 0.8026 0.0000
vt 0.2191 0.8452 0.0000
vt 0.1859 0.8452 0.0000
vt 0.1859 0.8026 0.0000
vt 0.2294 0.8877 0.0000
vt 0.1859 0.8877 0.0000
vt 0.3963 0.3500 0.0000
vt 0.3963 0.3074 0.0000
vt 0.3963 0.3925 0.0000
vt 0.4874 0.3929 0.0000
vt 0.3972 0.3963 0.0000
vt 0.3002 0.4795 0.0000
vt 0.2932 0.4403 0.0000
vt 0.3257 0.5449 0.0000
vt 0.3007 0.5105 0.0000
vt 0.3507 0.5814 0.0000
vt 0.1526 0.8452 0.0000
vt 0.1423 0.8026 0.0000
vt 0.1423 0.8877 0.0000
vt 0.3277 0.3277 0.0000
vt 0.3527 0.2933 0.0000
vt 0.3027 0.3621 0.0000
vt 0.3036 0.3978 0.0000
vt 0.2926 0.4405 0.0000
vt 0.2783 0.4830 0.0000
vt 0.1987 0.4830 0.0000
vt 0.2042 0.4405 0.0000
vt 0.2833 0.6053 0.0000
vt 0.2428 0.5921 0.0000
vt 0.3238 0.6184 0.0000
vt 0.1412 0.8030 0.0000
vt 0.1270 0.8455 0.0000
vt 0.0987 0.8455 0.0000
vt 0.1042 0.8030 0.0000
vt 0.1412 0.8880 0.0000
vt 0.1042 0.8880 0.0000
vt 0.2853 0.2693 0.0000
vt 0.3258 0.2562 0.0000
vt 0.2449 0.2825 0.0000
vt 0.2783 0.3979 0.0000
vt 0.1987 0.3979 0.0000
vt 0.1003 0.4830 0.0000
vt 0.0949 0.4405 0.0000
vt 0.2833 0.6774 0.0000
vt 0.2428 0.6905 0.0000
vt 0.3238 0.6642 0.0000
vt 0.0638 0.8455 0.0000
vt 0.0583 0.8030 0.0000
vt 0.0583 0.8880 0.0000
vt 0.2853 0.1972 0.0000
vt 0.3258 0.2104 0.0000
vt 0.2449 0.1841 0.0000
vt 0.1003 0.3979 0.0000
vt 0.0207 0.4830 0.0000
vt 0.0065 0.4405 0.0000
vt 0.3257 0.7357 0.0000
vt 0.3007 0.7701 0.0000
vt 0.3507 0.7013 0.0000
vt 0.0355 0.8455 0.0000
vt 0.0213 0.8030 0.0000
vt 0.0213 0.8880 0.0000
vt 0.3277 0.1389 0.0000
vt 0.3527 0.1733 0.0000
vt 0.3027 0.1045 0.0000
vt 0.0207 0.3979 0.0000
vt 0.9946 0.4352 0.0000
vt 0.9842 0.4778 0.0000
vt 0.4388 0.8027 0.0000
vt 0.4284 0.8452 0.0000
vt 0.4388 0.8877 0.0000
vt 0.9842 0.3927 0.0000
# 144 texture coords

g dona
usemtl 02___Default
s 1
f 1/1/1 2/2/2 3/3/3 4/4/4 
f 2/5/2 5/6/5 6/7/6 3/8/3 
f 5/6/5 7/9/7 8/10/8 6/7/6 
f 7/11/7 9/12/9 10/13/10 8/14/8 
f 9/12/9 11/15/11 12/16/12 10/13/10 
f 11/17/11 13/18/13 14/19/14 12/20/12 
f 13/18/13 15/21/15 16/22/16 14/19/14 
f 15/23/15 1/1/1 4/4/4 16/24/16 
f 4/25/4 3/26/3 17/27/17 18/28/18 
f 3/8/3 6/7/6 19/29/19 17/30/17 
f 6/7/6 8/10/8 20/31/20 19/29/19 
f 8/32/8 10/33/10 21/34/21 20/35/20 
f 10/33/10 12/36/12 22/37/22 21/34/21 
f 12/20/12 14/19/14 23/38/23 22/39/22 
f 14/19/14 16/22/16 24/40/24 23/38/23 
f 16/41/16 4/25/4 18/28/18 24/42/24 
f 18/28/18 17/27/17 25/43/25 26/44/26 
f 17/30/17 19/29/19 27/45/27 25/46/25 
f 19/29/19 20/31/20 28/47/28 27/45/27 
f 20/35/20 21/34/21 29/48/29 28/49/28 
f 21/34/21 22/37/22 30/50/30 29/48/29 
f 22/39/22 23/38/23 31/51/31 30/52/30 
f 23/38/23 24/40/24 32/53/32 31/51/31 
f 24/42/24 18/28/18 26/44/26 32/54/32 
f 26/44/26 25/43/25 33/55/33 34/56/34 
f 25/46/25 27/45/27 35/57/35 33/58/33 
f 27/45/27 28/47/28 36/59/36 35/57/35 
f 28/49/28 29/48/29 37/60/37 36/61/36 
f 29/48/29 30/50/30 38/62/38 37/60/37 
f 30/52/30 31/51/31 39/63/39 38/64/38 
f 31/51/31 32/53/32 40/65/40 39/63/39 
f 32/54/32 26/44/26 34/56/34 40/66/40 
f 34/67/34 33/68/33 41/69/41 42/70/42 
f 33/58/33 35/57/35 43/71/43 41/72/41 
f 35/57/35 36/59/36 44/73/44 43/71/43 
f 36/74/36 37/75/37 45/76/45 44/77/44 
f 37/75/37 38/78/38 46/79/46 45/76/45 
f 38/64/38 39/63/39 47/80/47 46/81/46 
f 39/63/39 40/65/40 48/82/48 47/80/47 
f 40/83/40 34/67/34 42/70/42 48/84/48 
f 42/70/42 41/69/41 49/85/49 50/86/10 
f 41/72/41 43/71/43 51/87/50 49/88/49 
f 43/71/43 44/73/44 52/89/51 51/87/50 
f 44/77/44 45/76/45 53/90/4 52/91/51 
f 45/76/45 46/79/46 54/92/52 53/90/4 
f 46/81/46 47/80/47 55/93/53 54/94/52 
f 47/80/47 48/82/48 56/95/54 55/93/53 
f 48/84/48 42/70/42 50/86/10 56/96/54 
f 50/97/10 49/98/49 57/99/55 58/100/21 
f 49/88/49 51/87/50 59/101/56 57/102/55 
f 51/87/50 52/89/51 60/103/57 59/101/56 
f 52/104/51 53/105/4 61/106/18 60/107/57 
f 53/105/4 54/108/52 62/109/58 61/106/18 
f 54/94/52 55/93/53 63/110/59 62/111/58 
f 55/93/53 56/95/54 64/112/60 63/110/59 
f 56/113/54 50/97/10 58/100/21 64/114/60 
f 58/100/21 57/99/55 65/115/61 66/116/62 
f 57/102/55 59/101/56 67/117/63 65/118/61 
f 59/101/56 60/103/57 68/119/64 67/117/63 
f 60/107/57 61/106/18 69/120/26 68/121/64 
f 61/106/18 62/109/58 70/122/65 69/120/26 
f 62/111/58 63/110/59 71/123/66 70/124/65 
f 63/110/59 64/112/60 72/125/67 71/123/66 
f 64/114/60 58/100/21 66/116/62 72/126/67 
f 66/116/62 65/115/61 73/127/68 74/128/37 
f 65/118/61 67/117/63 75/129/69 73/130/68 
f 67/117/63 68/119/64 76/131/70 75/129/69 
f 68/121/64 69/120/26 77/132/34 76/133/70 
f 69/120/26 70/122/65 78/134/71 77/132/34 
f 70/124/65 71/123/66 79/135/72 78/136/71 
f 71/123/66 72/125/67 80/137/73 79/135/72 
f 72/126/67 66/116/62 74/128/37 80/138/73 
f 74/139/37 73/140/68 2/2/2 1/1/1 
f 73/130/68 75/129/69 5/6/5 2/5/2 
f 75/129/69 76/131/70 7/9/7 5/6/5 
f 76/141/70 77/142/34 9/12/9 7/11/7 
f 77/142/34 78/143/71 11/15/11 9/12/9 
f 78/136/71 79/135/72 13/18/13 11/17/11 
f 79/135/72 80/137/73 15/21/15 13/18/13 
f 80/144/73 74/139/37 1/1/1 15/23/15 
# 80 polygons

