# 3ds Max Wavefront OBJ Exporter v0.97b - (c)2007 guruware
# File Created: 18.11.2015 17:54:56

mtllib estambre.mtl

#
# object estambre
#

v  -0.0151 25.4542 -0.1856
v  -0.0151 23.7597 -6.5094
v  -3.1770 23.7597 -5.6621
v  -5.4917 23.7597 -3.3475
v  -6.3389 23.7597 -0.1856
v  -5.4917 23.7597 2.9764
v  -3.1770 23.7597 5.2910
v  -0.0151 23.7597 6.1383
v  3.1468 23.7597 5.2910
v  5.4615 23.7597 2.9764
v  6.3087 23.7597 -0.1855
v  5.4615 23.7597 -3.3475
v  3.1468 23.7597 -5.6621
v  -5.4917 19.1303 -9.6713
v  -0.0151 19.1303 -11.1387
v  -9.5008 19.1303 -5.6621
v  -10.9683 19.1303 -0.1856
v  -9.5008 19.1303 5.2910
v  -5.4917 19.1303 9.3002
v  -0.0151 19.1303 10.7676
v  5.4615 19.1303 9.3002
v  9.4706 19.1303 5.2910
v  10.9381 19.1303 -0.1855
v  9.4706 19.1303 -5.6621
v  5.4615 19.1303 -9.6713
v  -6.3389 12.8065 -11.1387
v  -0.0151 12.8065 -12.8332
v  -10.9683 12.8065 -6.5094
v  -12.6627 12.8065 -0.1856
v  -10.9683 12.8065 6.1383
v  -6.3389 12.8065 10.7676
v  -0.0151 12.8065 12.4621
v  6.3087 12.8065 10.7676
v  10.9381 12.8065 6.1383
v  12.6326 12.8065 -0.1855
v  10.9381 12.8065 -6.5094
v  6.3087 12.8065 -11.1387
v  -5.4917 6.4827 -9.6713
v  -0.0151 6.4827 -11.1387
v  -9.5008 6.4827 -5.6621
v  -10.9683 6.4827 -0.1856
v  -9.5008 6.4827 5.2910
v  -5.4917 6.4827 9.3002
v  -0.0151 6.4827 10.7676
v  5.4615 6.4827 9.3002
v  9.4706 6.4827 5.2910
v  10.9381 6.4827 -0.1855
v  9.4706 6.4827 -5.6621
v  5.4615 6.4827 -9.6713
v  -3.1770 1.8533 -5.6621
v  -0.0151 1.8533 -6.5094
v  -5.4917 1.8533 -3.3475
v  -6.3389 1.8533 -0.1856
v  -5.4917 1.8533 2.9764
v  -3.1770 1.8533 5.2910
v  -0.0151 1.8533 6.1383
v  3.1468 1.8533 5.2910
v  5.4615 1.8533 2.9764
v  6.3087 1.8533 -0.1856
v  5.4615 1.8533 -3.3475
v  3.1468 1.8533 -5.6621
v  -0.0151 0.1589 -0.1856
# 62 vertices

vn -0.0000 1.0000 0.0000
vn 0.0000 0.8474 -0.5309
vn -0.2654 0.8474 -0.4598
vn -0.4598 0.8474 -0.2654
vn -0.5309 0.8474 0.0000
vn -0.4598 0.8474 0.2654
vn -0.2655 0.8474 0.4598
vn -0.0000 0.8474 0.5309
vn 0.2654 0.8474 0.4598
vn 0.4598 0.8474 0.2655
vn 0.5309 0.8474 0.0000
vn 0.4598 0.8474 -0.2654
vn 0.2655 0.8474 -0.4598
vn -0.4380 0.4823 -0.7586
vn 0.0000 0.4823 -0.8760
vn -0.7586 0.4823 -0.4380
vn -0.8760 0.4823 -0.0000
vn -0.7586 0.4823 0.4380
vn -0.4380 0.4823 0.7586
vn -0.0000 0.4823 0.8760
vn 0.4380 0.4823 0.7586
vn 0.7586 0.4823 0.4380
vn 0.8760 0.4823 0.0000
vn 0.7586 0.4823 -0.4380
vn 0.4380 0.4823 -0.7586
vn -0.5000 0.0000 -0.8660
vn 0.0000 0.0000 -1.0000
vn -0.8660 0.0000 -0.5000
vn -1.0000 -0.0000 -0.0000
vn -0.8660 -0.0000 0.5000
vn -0.5000 -0.0000 0.8660
vn -0.0000 -0.0000 1.0000
vn 0.5000 -0.0000 0.8660
vn 0.8660 -0.0000 0.5000
vn 1.0000 -0.0000 0.0000
vn 0.8660 0.0000 -0.5000
vn 0.5000 0.0000 -0.8660
vn -0.4380 -0.4823 -0.7586
vn 0.0000 -0.4823 -0.8760
vn -0.7586 -0.4823 -0.4380
vn -0.8760 -0.4823 -0.0000
vn -0.7586 -0.4823 0.4380
vn -0.4380 -0.4823 0.7586
vn -0.0000 -0.4823 0.8760
vn 0.4380 -0.4823 0.7586
vn 0.7586 -0.4823 0.4380
vn 0.8760 -0.4823 0.0000
vn 0.7586 -0.4823 -0.4380
vn 0.4380 -0.4823 -0.7586
vn -0.2654 -0.8474 -0.4598
vn 0.0000 -0.8474 -0.5309
vn -0.4598 -0.8474 -0.2655
vn -0.5309 -0.8474 -0.0000
vn -0.4598 -0.8474 0.2654
vn -0.2655 -0.8474 0.4598
vn -0.0000 -0.8474 0.5309
vn 0.2654 -0.8474 0.4598
vn 0.4598 -0.8474 0.2655
vn 0.5309 -0.8474 0.0000
vn 0.4598 -0.8474 -0.2654
vn 0.2655 -0.8474 -0.4598
vn -0.0000 -1.0000 -0.0000
# 62 vertex normals

vt 0.7112 0.9394 0.0000
vt 0.7114 0.9054 0.0000
vt 0.7749 0.9059 0.0000
vt 0.8213 0.9062 0.0000
vt 0.8383 0.9063 0.0000
vt 0.2759 0.5245 0.0000
vt 0.1493 0.4896 0.0000
vt 0.1663 0.4897 0.0000
vt 0.2128 0.4900 0.0000
vt 0.2762 0.4905 0.0000
vt 0.3396 0.4909 0.0000
vt 0.3860 0.4913 0.0000
vt 0.4030 0.4914 0.0000
vt 0.5846 0.9045 0.0000
vt 0.6016 0.9046 0.0000
vt 0.6480 0.9050 0.0000
vt 0.8219 0.8133 0.0000
vt 0.7121 0.8126 0.0000
vt 0.9024 0.8139 0.0000
vt 0.9318 0.8141 0.0000
vt 0.0866 0.3963 0.0000
vt 0.0571 0.3961 0.0000
vt 0.1670 0.3968 0.0000
vt 0.2769 0.3976 0.0000
vt 0.3867 0.3984 0.0000
vt 0.4671 0.3990 0.0000
vt 0.4966 0.3992 0.0000
vt 0.5218 0.8112 0.0000
vt 0.4924 0.8110 0.0000
vt 0.6022 0.8118 0.0000
vt 0.8399 0.6866 0.0000
vt 0.7130 0.6857 0.0000
vt 0.9327 0.6873 0.0000
vt 0.9667 0.6875 0.0000
vt 0.0580 0.2692 0.0000
vt 0.0241 0.2690 0.0000
vt 0.1509 0.2699 0.0000
vt 0.2778 0.2708 0.0000
vt 0.4046 0.2717 0.0000
vt 0.4975 0.2723 0.0000
vt 0.5315 0.2726 0.0000
vt 0.4933 0.6841 0.0000
vt 0.4593 0.6839 0.0000
vt 0.5861 0.6848 0.0000
vt 0.8238 0.5596 0.0000
vt 0.7139 0.5588 0.0000
vt 0.9042 0.5602 0.0000
vt 0.9336 0.5604 0.0000
vt 0.0884 0.1426 0.0000
vt 0.0590 0.1424 0.0000
vt 0.1688 0.1431 0.0000
vt 0.2787 0.1439 0.0000
vt 0.3885 0.1447 0.0000
vt 0.4689 0.1453 0.0000
vt 0.4984 0.1455 0.0000
vt 0.5236 0.5575 0.0000
vt 0.4942 0.5573 0.0000
vt 0.6041 0.5581 0.0000
vt 0.7780 0.4664 0.0000
vt 0.7146 0.4660 0.0000
vt 0.8244 0.4668 0.0000
vt 0.8414 0.4669 0.0000
vt 0.1695 0.0503 0.0000
vt 0.1525 0.0502 0.0000
vt 0.2159 0.0506 0.0000
vt 0.2793 0.0511 0.0000
vt 0.3428 0.0515 0.0000
vt 0.3892 0.0518 0.0000
vt 0.4062 0.0520 0.0000
vt 0.6047 0.4652 0.0000
vt 0.5877 0.4651 0.0000
vt 0.6511 0.4655 0.0000
vt 0.7148 0.4320 0.0000
vt 0.2796 0.0171 0.0000
# 74 texture coords

g estambre
usemtl 01___Default
s 1
f 1/1/1 2/2/2 3/3/3 
f 1/1/1 3/3/3 4/4/4 
f 1/1/1 4/4/4 5/5/5 
f 1/6/1 5/7/5 6/8/6 
f 1/6/1 6/8/6 7/9/7 
f 1/6/1 7/9/7 8/10/8 
f 1/6/1 8/10/8 9/11/9 
f 1/6/1 9/11/9 10/12/10 
f 1/6/1 10/12/10 11/13/11 
f 1/1/1 11/14/11 12/15/12 
f 1/1/1 12/15/12 13/16/13 
f 1/1/1 13/16/13 2/2/2 
f 14/17/14 3/3/3 2/2/2 15/18/15 
f 16/19/16 4/4/4 3/3/3 14/17/14 
f 17/20/17 5/5/5 4/4/4 16/19/16 
f 18/21/18 6/8/6 5/7/5 17/22/17 
f 19/23/19 7/9/7 6/8/6 18/21/18 
f 20/24/20 8/10/8 7/9/7 19/23/19 
f 21/25/21 9/11/9 8/10/8 20/24/20 
f 22/26/22 10/12/10 9/11/9 21/25/21 
f 23/27/23 11/13/11 10/12/10 22/26/22 
f 24/28/24 12/15/12 11/14/11 23/29/23 
f 25/30/25 13/16/13 12/15/12 24/28/24 
f 15/18/15 2/2/2 13/16/13 25/30/25 
f 26/31/26 14/17/14 15/18/15 27/32/27 
f 28/33/28 16/19/16 14/17/14 26/31/26 
f 29/34/29 17/20/17 16/19/16 28/33/28 
f 30/35/30 18/21/18 17/22/17 29/36/29 
f 31/37/31 19/23/19 18/21/18 30/35/30 
f 32/38/32 20/24/20 19/23/19 31/37/31 
f 33/39/33 21/25/21 20/24/20 32/38/32 
f 34/40/34 22/26/22 21/25/21 33/39/33 
f 35/41/35 23/27/23 22/26/22 34/40/34 
f 36/42/36 24/28/24 23/29/23 35/43/35 
f 37/44/37 25/30/25 24/28/24 36/42/36 
f 27/32/27 15/18/15 25/30/25 37/44/37 
f 38/45/38 26/31/26 27/32/27 39/46/39 
f 40/47/40 28/33/28 26/31/26 38/45/38 
f 41/48/41 29/34/29 28/33/28 40/47/40 
f 42/49/42 30/35/30 29/36/29 41/50/41 
f 43/51/43 31/37/31 30/35/30 42/49/42 
f 44/52/44 32/38/32 31/37/31 43/51/43 
f 45/53/45 33/39/33 32/38/32 44/52/44 
f 46/54/46 34/40/34 33/39/33 45/53/45 
f 47/55/47 35/41/35 34/40/34 46/54/46 
f 48/56/48 36/42/36 35/43/35 47/57/47 
f 49/58/49 37/44/37 36/42/36 48/56/48 
f 39/46/39 27/32/27 37/44/37 49/58/49 
f 50/59/50 38/45/38 39/46/39 51/60/51 
f 52/61/52 40/47/40 38/45/38 50/59/50 
f 53/62/53 41/48/41 40/47/40 52/61/52 
f 54/63/54 42/49/42 41/50/41 53/64/53 
f 55/65/55 43/51/43 42/49/42 54/63/54 
f 56/66/56 44/52/44 43/51/43 55/65/55 
f 57/67/57 45/53/45 44/52/44 56/66/56 
f 58/68/58 46/54/46 45/53/45 57/67/57 
f 59/69/59 47/55/47 46/54/46 58/68/58 
f 60/70/60 48/56/48 47/57/47 59/71/59 
f 61/72/61 49/58/49 48/56/48 60/70/60 
f 51/60/51 39/46/39 49/58/49 61/72/61 
f 62/73/62 50/59/50 51/60/51 
f 62/73/62 52/61/52 50/59/50 
f 62/73/62 53/62/53 52/61/52 
f 62/74/62 54/63/54 53/64/53 
f 62/74/62 55/65/55 54/63/54 
f 62/74/62 56/66/56 55/65/55 
f 62/74/62 57/67/57 56/66/56 
f 62/74/62 58/68/58 57/67/57 
f 62/74/62 59/69/59 58/68/58 
f 62/73/62 60/70/60 59/71/59 
f 62/73/62 61/72/61 60/70/60 
f 62/73/62 51/60/51 61/72/61 
# 48 polygons - 24 triangles

