# 3ds Max Wavefront OBJ Exporter v0.97b - (c)2007 guruware
# File Created: 18.11.2015 17:53:07

mtllib gorrito.mtl

#
# object gorro
#

v  12.3449 0.1123 0.0264
v  8.7294 0.1123 -8.7023
v  0.4183 30.2308 -0.3912
v  0.5913 30.2308 0.0264
v  0.0007 0.1123 -12.3179
v  0.0007 30.2308 -0.5642
v  -8.7280 0.1123 -8.7023
v  -0.4170 30.2308 -0.3912
v  -12.3436 0.1123 0.0264
v  -0.5899 30.2308 0.0264
v  -8.7280 0.1123 8.7551
v  -0.4170 30.2308 0.4440
v  0.0007 0.1123 12.3707
v  0.0007 30.2308 0.6170
v  8.7294 0.1123 8.7551
v  0.4183 30.2308 0.4440
v  0.1047 30.9912 -0.5827
v  3.4790 29.3237 -0.5827
v  2.1658 32.3783 -0.5827
v  0.1004 32.2170 -0.5827
v  -1.9563 32.3783 -0.5827
v  -3.2695 29.3237 -0.5827
v  1.3632 34.7954 0.3368
v  0.1047 37.8454 0.3368
v  0.1047 37.8454 -0.5827
v  1.3632 34.7954 -0.5827
v  -1.1538 34.7954 0.3368
v  -1.1538 34.7954 -0.5827
v  -3.8531 34.4306 0.3368
v  -3.8531 34.4306 -0.5827
v  -1.9563 32.3783 0.3368
v  -3.2695 29.3237 0.3368
v  0.1047 30.9912 0.3368
v  3.4790 29.3237 0.3368
v  2.1658 32.3783 0.3368
v  4.0626 34.4306 0.3368
v  4.0626 34.4306 -0.5827
v  0.1077 32.3783 0.3368
v  0.1047 32.3783 0.3368
# 39 vertices

vn 0.9316 0.3635 0.0000
vn 0.6587 0.3635 -0.6587
vn 0.9316 0.3635 -0.0000
vn 0.0000 0.3635 -0.9316
vn -0.0000 0.3635 -0.9316
vn -0.6587 0.3635 -0.6587
vn -0.9316 0.3635 0.0000
vn -0.6587 0.3635 0.6587
vn -0.0000 0.3635 0.9316
vn 0.0000 0.3635 0.9316
vn 0.6587 0.3635 0.6587
vn 0.0000 -1.0000 -0.0000
vn 0.0000 1.0000 -0.0000
vn -0.0000 -0.0000 1.0000
vn 0.0000 -0.0000 1.0000
vn -0.9244 -0.3814 -0.0000
vn 0.9244 -0.3814 -0.0000
vn 0.1339 -0.9910 -0.0000
vn 0.7344 0.6787 -0.0000
vn 0.9187 -0.3950 -0.0000
vn -0.4430 0.8965 -0.0000
vn 0.4430 0.8965 -0.0000
vn -0.9187 -0.3950 -0.0000
vn -0.7344 0.6787 -0.0000
vn -0.1339 -0.9910 -0.0000
vn 0.0000 0.0000 -1.0000
vn -0.0000 0.0000 -1.0000
# 27 vertex normals

vt 0.3984 0.3116 0.0000
vt 0.5266 0.3116 0.0000
vt 0.4656 0.7461 0.0000
vt 0.4595 0.7461 0.0000
vt 0.0633 0.9980 0.0000
vt 0.0153 0.8791 0.0000
vt 0.4411 0.7732 0.0000
vt 0.4434 0.7789 0.0000
vt 0.0020 0.7516 0.0000
vt 0.4405 0.7671 0.0000
vt 0.0243 0.6253 0.0000
vt 0.4416 0.7611 0.0000
vt 0.0806 0.5101 0.0000
vt 0.4443 0.7556 0.0000
vt 0.1664 0.4148 0.0000
vt 0.4484 0.7510 0.0000
vt 0.2752 0.3469 0.0000
vt 0.4536 0.7478 0.0000
vt 0.3078 0.0927 0.0000
vt 0.3984 0.0020 0.0000
vt 0.5266 0.0020 0.0000
vt 0.6173 0.0927 0.0000
vt 0.6173 0.2209 0.0000
vt 0.3078 0.2209 0.0000
vt 0.4628 0.7543 0.0000
vt 0.4614 0.7603 0.0000
vt 0.4562 0.7636 0.0000
vt 0.4502 0.7622 0.0000
vt 0.4470 0.7570 0.0000
vt 0.4595 0.7491 0.0000
vt 0.9185 0.8966 0.0000
vt 0.9560 0.9727 0.0000
vt 0.8872 0.9431 0.0000
vt 0.8908 0.8965 0.0000
vt 0.8872 0.8502 0.0000
vt 0.9560 0.8206 0.0000
vt 0.8873 0.7362 0.0000
vt 0.9560 0.7078 0.0000
vt 0.8873 0.6795 0.0000
vt 0.8791 0.6186 0.0000
vt 0.8410 0.8075 0.0000
vt 0.8328 0.6614 0.0000
vt 0.7640 0.6318 0.0000
vt 0.8016 0.7078 0.0000
vt 0.7640 0.7839 0.0000
vt 0.8328 0.7543 0.0000
vt 0.8791 0.7970 0.0000
vt 0.8328 0.7079 0.0000
vt 0.8328 0.7078 0.0000
vt 0.8410 0.9858 0.0000
vt 0.8327 0.9250 0.0000
vt 0.8327 0.8683 0.0000
vt 0.7640 0.8966 0.0000
# 53 texture coords

g gorro
usemtl 03___Default
s 1
f 1/1/1 2/2/2 3/3/2 4/4/3 
f 2/5/2 5/6/4 6/7/5 3/8/2 
f 5/6/4 7/9/6 8/10/6 6/7/5 
f 7/9/6 9/11/7 10/12/7 8/10/6 
f 9/11/7 11/13/8 12/14/8 10/12/7 
f 11/13/8 13/15/9 14/16/10 12/14/8 
f 13/15/9 15/17/11 16/18/11 14/16/10 
f 15/17/11 1/1/1 4/4/3 16/18/11 
s 2
f 13/19/12 11/20/12 9/21/12 1/1/12 
f 9/21/12 7/22/12 5/23/12 1/1/12 
f 5/23/12 2/2/12 1/1/12 
f 15/24/12 13/19/12 1/1/12 
f 3/25/13 6/26/13 8/27/13 16/18/13 
f 8/27/13 10/28/13 12/29/13 16/18/13 
f 12/29/13 14/16/13 16/18/13 
f 4/30/13 3/25/13 16/18/13 
s 1
f 17/31/14 18/32/14 19/33/14 20/34/14 
f 20/34/14 21/35/15 22/36/15 17/31/14 
s off
f 23/37/16 24/38/16 25/38/16 26/37/16 
f 24/38/17 27/39/17 28/39/17 25/38/17 
f 27/39/18 29/40/18 30/40/18 28/39/18 
f 29/41/19 31/35/19 21/35/19 30/41/19 
f 31/42/20 32/43/20 22/43/20 21/42/20 
f 32/43/21 33/44/21 17/44/21 22/43/21 
f 33/44/22 34/45/22 18/45/22 17/44/22 
f 19/46/23 18/45/23 34/45/23 35/46/23 
f 35/46/24 36/47/24 37/47/24 19/46/24 
f 36/47/25 23/37/25 26/37/25 37/47/25 
f 38/48/26 35/46/26 34/45/26 39/49/26 
f 34/45/26 33/44/26 39/49/26 
f 33/44/27 32/43/27 31/42/27 39/49/27 
f 31/42/27 29/40/27 27/39/27 39/49/27 
f 39/49/26 27/39/26 24/38/26 23/37/26 
f 39/49/26 23/37/26 38/48/26 
f 23/37/26 36/47/26 35/46/26 38/48/26 
s 1
f 19/33/14 37/50/14 26/51/14 20/34/14 
f 28/52/15 30/41/15 21/35/15 20/34/14 
f 20/34/14 26/51/14 25/53/14 28/52/15 
# 32 polygons - 6 triangles

