# 3ds Max Wavefront OBJ Exporter v0.97b - (c)2007 guruware
# File Created: 18.11.2015 17:54:35

mtllib papas.mtl

#
# object papas
#

v  -9.3280 0.1527 -4.9684
v  -11.2662 15.8399 -9.5084
v  11.5651 15.8399 -9.5084
v  9.6269 0.1527 -4.9684
v  -9.3280 0.1527 4.2034
v  9.6269 0.1527 4.2034
v  11.5651 15.8399 8.7435
v  -11.2662 15.8399 8.7435
v  -9.5730 15.8399 -8.1549
v  9.8719 15.8399 -8.1549
v  9.8719 15.8399 7.3899
v  -9.5730 15.8399 7.3899
v  -9.5730 27.1226 -8.1549
v  9.8719 27.1226 -8.1549
v  9.8719 27.1226 7.3899
v  -9.5730 27.1226 7.3899
# 16 vertices

vn 0.0000 -0.2780 -0.9606
vn 0.0000 -0.2780 0.9606
vn 0.0000 -1.0000 0.0000
vn 0.9925 -0.1226 -0.0000
vn 0.9925 -0.1226 0.0000
vn -0.9925 -0.1226 -0.0000
vn -0.9925 -0.1226 0.0000
vn 0.0000 1.0000 0.0000
vn -0.0000 1.0000 0.0000
vn 0.0000 -0.0000 -1.0000
vn 0.0000 0.0000 1.0000
vn 1.0000 0.0000 -0.0000
vn -1.0000 0.0000 -0.0000
# 13 vertex normals

vt 0.9197 0.2470 0.0000
vt 0.9492 0.4859 0.0000
vt 0.6014 0.4859 0.0000
vt 0.6310 0.2470 0.0000
vt 0.6771 0.2442 0.0000
vt 0.3884 0.2442 0.0000
vt 0.3589 0.0052 0.0000
vt 0.7066 0.0052 0.0000
vt 0.3275 0.2119 0.0000
vt 0.0388 0.2119 0.0000
vt 0.0388 0.0722 0.0000
vt 0.3275 0.0722 0.0000
vt 0.7759 0.2449 0.0000
vt 0.7067 0.0060 0.0000
vt 0.9847 0.0060 0.0000
vt 0.9156 0.2449 0.0000
vt 0.3105 0.4880 0.0000
vt 0.3797 0.2491 0.0000
vt 0.5194 0.2491 0.0000
vt 0.5885 0.4880 0.0000
vt 0.3577 0.2880 0.0000
vt 0.0100 0.2880 0.0000
vt 0.0358 0.2674 0.0000
vt 0.3319 0.2674 0.0000
vt 0.0100 0.0100 0.0000
vt 0.3577 0.0100 0.0000
vt 0.3319 0.0306 0.0000
vt 0.0358 0.0306 0.0000
vt 0.5004 0.6148 0.0000
vt 0.7714 0.6148 0.0000
vt 0.7714 0.7720 0.0000
vt 0.5004 0.7720 0.0000
vt 0.2835 0.7721 0.0000
vt 0.0125 0.7721 0.0000
vt 0.0125 0.6149 0.0000
vt 0.2835 0.6149 0.0000
vt 0.5003 0.7722 0.0000
vt 0.2836 0.7722 0.0000
vt 0.2836 0.6149 0.0000
vt 0.5003 0.6149 0.0000
vt 0.7715 0.6148 0.0000
vt 0.9881 0.6148 0.0000
vt 0.9881 0.7720 0.0000
vt 0.7715 0.7720 0.0000
vt 0.7714 0.9888 0.0000
vt 0.5004 0.9888 0.0000
vt 0.5004 0.7722 0.0000
vt 0.7714 0.7722 0.0000
# 48 texture coords

g papas
usemtl 08___Default
s 2
f 1/1/1 2/2/1 3/3/1 4/4/1 
s 4
f 5/5/2 6/6/2 7/7/2 8/8/2 
s 8
f 1/9/3 4/10/3 6/11/3 5/12/3 
s 16
f 4/13/4 3/14/4 7/15/4 6/16/5 
s 64
f 2/17/6 1/18/7 5/19/6 8/20/6 
s off
f 3/21/8 2/22/8 9/23/8 10/24/8 
f 8/25/8 7/26/8 11/27/8 12/28/8 
f 7/26/8 3/21/8 10/24/8 11/27/8 
f 2/22/9 8/25/9 12/28/9 9/23/9 
f 10/29/10 9/30/10 13/31/10 14/32/10 
f 12/33/11 11/34/11 15/35/11 16/36/11 
f 11/37/12 10/38/12 14/39/12 15/40/12 
f 9/41/13 12/42/13 16/43/13 13/44/13 
f 16/45/8 15/46/8 14/47/8 13/48/8 
# 14 polygons

